<svg width="299" height="224" viewBox="0 0 299 224" fill="none" xmlns="http://www.w3.org/2000/svg">
<path fill-rule="evenodd" clip-rule="evenodd" d="M46.8632 -18.0217C54.719 -25.9918 65.2116 -30.4531 79.2656 -30.4531C91.4363 -30.4531 101.667 -25.6743 108.716 -17.5094C115.612 -9.52155 118.875 0.995399 118.875 11.7969V34.7763C124.453 33.7312 131.515 32.9219 140 32.9219C148.485 32.9219 155.547 33.7312 161.125 34.7763V11.7969C161.125 0.995399 164.388 -9.52155 171.284 -17.5094C178.333 -25.6743 188.564 -30.4531 200.734 -30.4531C214.788 -30.4531 225.281 -25.9918 233.137 -18.0217C240.446 -10.6062 244.72 -0.833893 248.183 7.90591L248.603 9.0097L293.63 129.102C293.63 129.102 295.34 133.926 295.555 134.642C297.472 141.049 298.444 147.702 298.438 154.391C298.438 192.309 267.699 223.047 229.781 223.047C191.863 223.047 161.125 192.309 161.125 154.391V114.477L161.099 114.47C156.563 113.345 149.494 112.141 140 112.141C130.506 112.141 123.437 113.345 118.901 114.47L118.875 114.477V154.391C118.875 192.309 88.1368 223.047 50.2188 223.047C12.3007 223.047 -18.4375 192.309 -18.4375 154.391C-18.4375 147.526 -17.4301 140.896 -15.5546 134.641C-15.4547 134.184 -15.3222 133.729 -15.1572 133.276C-14.6783 131.874 -14.169 130.482 -13.6296 129.101L31.8169 7.90591C35.2801 -0.833893 39.5546 -10.6062 46.8632 -18.0217ZM182.25 154.328C182.284 128.106 203.551 106.859 229.781 106.859C249.832 106.859 266.982 119.274 273.966 136.836L274.862 139.285C276.491 144.154 277.318 149.256 277.312 154.391C277.312 180.641 256.032 201.922 229.781 201.922C203.539 201.922 182.265 180.656 182.25 154.417V154.391M50.2188 106.859C30.1691 106.859 13.0189 119.274 6.03449 136.834L5.138 139.286C3.50964 144.155 2.68206 149.256 2.6875 154.391C2.6875 180.641 23.9683 201.922 50.2188 201.922C76.4692 201.922 97.75 180.641 97.75 154.391C97.75 128.14 76.4692 106.859 50.2188 106.859Z" fill="white"/>
</svg>
